<?xml version="1.0" encoding="utf-8"?>
<!-- Generator: Adobe Illustrator 23.0.2, SVG Export Plug-In . SVG Version: 6.00 Build 0)  -->
<svg version="1.1" xmlns="http://www.w3.org/2000/svg" xmlns:xlink="http://www.w3.org/1999/xlink" x="0px" y="0px"
	 viewBox="0 0 300 300" style="enable-background:new 0 0 300 300;" xml:space="preserve">
<style type="text/css">
	<!-- .st0{fill:#231F20;} -->
	.st1{fill:#091F40;}
	.st2{fill:#DAD9D9;}
	<!-- .st3{fill:#E8194E;} -->
</style>
<g id="Walls">
	<polyline class="st0" points="114.2,143.59 115.3,143.39 114.18,137.23 110.69,132.01 105.46,128.52 99.09,127.36 93.3,128.52
		87.53,131.98 84.03,137.23 82.87,143.59 84.03,149.95 87.53,155.2 93.3,158.67 99.09,159.83 105.46,158.67 110.69,155.18
		114.18,149.95 115.34,143.59 115.3,143.39 114.2,143.59 113.09,143.39 112.05,149.09 109.08,153.56 104.6,156.54 99.11,157.54
		94.12,156.54 89.12,153.54 86.15,149.09 85.15,143.59 86.15,138.09 89.12,133.64 94.12,130.64 99.11,129.64 104.6,130.64
		109.08,133.62 112.05,138.09 113.09,143.8 114.2,143.59 113.09,143.39 114.2,143.59 	"/>
	<path class="st1" d="M265.03,40.98v62.19c1.15,0.89,1.88,1.62,2.77,1.62c0.89,0,1.62-0.72,1.72-1.62V42.26
		c-0.1-0.89-0.83-1.62-1.72-1.62c-0.89,0-1.62,0.72-1.62,1.62 M206.64,34.72v7.55c-1.36,0.89-0.64,1.62,0.26,1.62
		s1.62-0.72,4.24-1.62v-7.55c-2.62-0.89-3.34-1.62-4.24-1.62S205.28,33.83,206.64,34.72z M265.03,34.72v7.55
		c1.15,0.89,1.88,1.62,2.77,1.62c0.89,0,1.62-0.72,1.72-1.62v-7.55c-0.1-0.89-0.83-1.62-1.72-1.62
		C266.91,33.1,266.19,33.83,265.03,34.72z M278.51,34.72v217.75c-1.54,0.89-0.81,1.62,0.08,1.62c0.89,0,1.62-0.72,4.41-1.62V34.72
		c-2.8-0.89-3.52-1.62-4.41-1.62C277.7,33.1,276.97,33.83,278.51,34.72z M269.53,42.26v202.12c-0.1,0.89,0.62,1.62,1.51,1.62
		c0.89,0,1.62-0.72,2.98-1.62V42.26c-1.36-0.89-2.08-1.62-2.98-1.62C270.15,40.65,269.42,41.37,269.53,42.26z M28.5,45.47h178.4
		c0.89-1.59,1.62-2.32,1.62-3.21c0-0.89-0.72-1.62-1.62-1.28H28.5c-0.89-0.34-1.62,0.39-1.62,1.28
		C26.88,43.16,27.6,43.88,28.5,45.47z M20.95,252.08h257.63c0.89,2,1.62,1.28,1.62,0.38c0-0.89-0.72-1.62-1.62,4.11H20.95
		c-0.89-5.73-1.62-5-1.62-4.11C19.33,253.36,20.06,254.09,20.95,252.08z M28.5,247.59h242.54c0.89-1.59,1.62-2.32,1.62-3.21
		c0-0.89-0.72-1.62-1.62-1.28H28.5c-0.89-0.34-1.62,0.39-1.62,1.28C26.88,245.28,27.6,246,28.5,247.59z M18,34.72v217.75
		c1.33,0.89,2.06,1.62,2.95,1.62c0.89,0,1.62-0.72,1.54-1.62V34.72c0.08-0.89-0.65-1.62-1.54-1.62C20.06,33.1,19.33,33.83,18,34.72z
		 M26.98,42.26v202.12c-0.1,0.89,0.62,1.62,1.51,1.62c0.89,0,1.62-0.72,2.98-1.62V42.26c-1.36-0.89-2.08-1.62-2.98-1.62
		C27.6,40.65,26.88,41.37,26.98,42.26z M20.95,36.49H206.9c0.89-0.16,1.62-0.88,1.62-1.77c0-0.89-0.72-1.62-1.62-2.72H20.95
		c-0.89,1.1-1.62,1.83-1.62,2.72C19.33,35.61,20.06,36.34,20.95,36.49z"/>
	<rect x="26.98" y="81.41" class="st2" width="40.42" height="121.27"/>
	<polyline class="st0" points="26.98,202.68 26.98,207.17 71.9,207.17 71.9,81.41 26.98,81.41 26.98,202.68 31.47,202.68
		31.47,202.68 26.98,202.68 26.98,81.41 67.41,81.41 67.41,202.68 26.98,202.68 26.98,207.17 29.62,207.17 26.98,207.17 	"/>
	<path class="st1" d="M204.7,42.43l1.08,10.78c3.75,25.34,25.39,46.39,50.49,50.49l10.78,1.08c0.89,0.09,1.68-0.56,1.77-1.45
		c0.09-0.89-0.56-1.68-1.45-1.77l-10.65-1.07c-23.71-3.92-44.16-23.79-47.74-47.74l-1.07-10.65c-0.09-0.89-0.88-1.54-1.77-1.45
		C205.26,40.74,204.61,41.54,204.7,42.43"/>
	<path class="st1" d="M265.03,36.49h12.96c0.89-0.16,1.62-0.88,1.62-1.77c0-0.89-0.73-1.62-1.62-2.72h-10.78
		c-0.89,1.1-1.62,1.83-1.62,2.72c0,0.89,0.72,1.62,1.62,1.62 M27.9,247.59h107.8c0.89-1.59,1.62-2.32,1.62-3.21
		c0-0.89-0.72-1.62-1.62-1.28H27.9c-0.89-0.34-1.62,0.39-1.62,1.28C26.29,245.28,27.01,246,27.9,247.59z M267.21,36.49h10.78
		c0.89-0.16,1.62-0.88,1.62-1.77c0-0.89-0.73-1.62-1.62-2.72h-10.78c-0.89,1.1-1.62,1.83-1.62,2.72
		C265.6,35.61,266.32,36.34,267.21,36.49z M267.21,45.47h3.23c0.89-1.59,1.62-2.32,1.62-3.21c0-0.89-0.72-1.62-1.62-1.28h-3.23
		c-0.89-0.34-1.62,0.39-1.62,1.28C265.6,43.16,266.32,43.88,267.21,45.47z"/>
	<path class="st1" d="M265.03,40.98v62.19c1.15,0.89,1.88,1.62,2.77,1.62c0.89,0,1.62-0.72,1.72-1.62V42.26
		c-0.1-0.89-0.83-1.62-1.72-1.62c-0.89,0-1.62,0.72-1.62,1.62 M206.64,34.72v7.55c-1.36,0.89-0.64,1.62,0.26,1.62
		s1.62-0.72,4.24-1.62v-7.55c-2.62-0.89-3.34-1.62-4.24-1.62S205.28,33.83,206.64,34.72z M265.03,34.72v7.55
		c1.15,0.89,1.88,1.62,2.77,1.62c0.89,0,1.62-0.72,1.72-1.62v-7.55c-0.1-0.89-0.83-1.62-1.72-1.62
		C266.91,33.1,266.19,33.83,265.03,34.72z M278.51,34.72v217.75c-1.54,0.89-0.81,1.62,0.08,1.62c0.89,0,1.61-0.72,4.41-1.62V34.72
		c-2.8-0.89-3.52-1.62-4.41-1.62C277.7,33.1,276.97,33.83,278.51,34.72z M269.53,42.26v202.12c-0.1,0.89,0.62,1.62,1.51,1.62
		c0.89,0,1.62-0.72,2.98-1.62V42.26c-1.36-0.89-2.08-1.62-2.98-1.62C270.15,40.65,269.42,41.37,269.53,42.26z M28.5,45.47h178.4
		c0.89-1.59,1.62-2.32,1.62-3.21c0-0.89-0.72-1.62-1.62-1.28H28.5c-0.89-0.34-1.62,0.39-1.62,1.28
		C26.88,43.16,27.6,43.88,28.5,45.47z M20.95,252.08h257.64c0.89,2,1.61,1.28,1.61,0.38c0-0.89-0.72-1.62-1.61,4.11H20.95
		c-0.89-5.73-1.62-5-1.62-4.11C19.33,253.36,20.06,254.09,20.95,252.08z M28.5,247.59h242.54c0.89-1.59,1.62-2.32,1.62-3.21
		c0-0.89-0.73-1.62-1.62-1.28H28.5c-0.89-0.34-1.62,0.39-1.62,1.28C26.88,245.28,27.6,246,28.5,247.59z M18,34.72v217.75
		c1.33,0.89,2.06,1.62,2.95,1.62c0.89,0,1.62-0.72,1.54-1.62V34.72c0.08-0.89-0.65-1.62-1.54-1.62C20.06,33.1,19.33,33.83,18,34.72z
		 M26.98,42.26v202.12c-0.1,0.89,0.62,1.62,1.51,1.62c0.89,0,1.62-0.72,2.98-1.62V42.26c-1.36-0.89-2.08-1.62-2.98-1.62
		C27.6,40.65,26.88,41.37,26.98,42.26z M20.95,36.49H206.9c0.89-0.16,1.62-0.88,1.62-1.77c0-0.89-0.72-1.62-1.62-2.72H20.95
		c-0.89,1.1-1.62,1.83-1.62,2.72C19.33,35.61,20.06,36.34,20.95,36.49z"/>
	<polyline class="st0" points="26.98,202.68 26.98,207.17 71.9,207.17 71.9,81.41 26.98,81.41 26.98,202.68 31.47,202.68
		31.47,202.68 26.98,202.68 26.98,81.41 67.41,81.41 67.41,202.68 26.98,202.68 26.98,207.17 29.62,207.17 26.98,207.17 	"/>
	<path class="st1" d="M204.7,42.43l1.08,10.78c3.75,25.34,25.39,46.39,50.49,50.49l10.78,1.08c0.89,0.09,1.68-0.56,1.77-1.45
		c0.09-0.89-0.56-1.68-1.45-1.77l-10.65-1.07c-23.72-3.92-44.16-23.79-47.74-47.74l-1.07-10.65c-0.09-0.89-0.88-1.54-1.77-1.45
		C205.26,40.74,204.61,41.54,204.7,42.43"/>
	<path class="st1" d="M265.03,36.49h12.96c0.89-0.16,1.62-0.88,1.62-1.77c0-0.89-0.73-1.62-1.62-2.72h-10.78
		c-0.89,1.1-1.62,1.83-1.62,2.72c0,0.89,0.72,1.62,1.62,1.62 M27.9,247.59h107.8c0.89-1.59,1.62-2.32,1.62-3.21
		c0-0.89-0.72-1.62-1.62-1.28H27.9c-0.89-0.34-1.62,0.39-1.62,1.28C26.29,245.28,27.01,246,27.9,247.59z M267.21,36.49h10.78
		c0.89-0.16,1.62-0.88,1.62-1.77c0-0.89-0.73-1.62-1.62-2.72h-10.78c-0.89,1.1-1.62,1.83-1.62,2.72
		C265.6,35.61,266.32,36.34,267.21,36.49z M267.21,45.47h3.23c0.89-1.59,1.62-2.32,1.62-3.21c0-0.89-0.72-1.62-1.62-1.28h-3.23
		c-0.89-0.34-1.62,0.39-1.62,1.28C265.6,43.16,266.32,43.88,267.21,45.47z"/>
</g>
<g id="GREY">
	<polyline class="st2" points="114.2,143.59 113.12,137.66 109.88,132.81 105.03,129.58 99.1,128.5 93.71,129.58 88.32,132.81
		85.09,137.66 84.01,143.59 85.09,149.52 88.32,154.37 93.71,157.61 99.1,158.69 105.03,157.61 109.88,154.37 113.12,149.52
		114.2,143.59 	"/>
	<rect x="26.98" y="81.41" class="st2" width="40.42" height="121.27"/>
</g>
<g id="Person">
	<polyline class="st3" points="148.25,117.34 148.25,153.27 149.52,155.93 151.91,157.76 157.24,157.76 157.24,196.65
		158.46,200.08 160.91,202.68 180.66,202.68 183.11,200.49 184.19,197.34 184.19,157.76 188.07,157.76 191.23,156.19 193.17,152.68
		193.17,117.36 191.81,115.21 189.81,113.71 186.45,112.85 157.67,112.85 153.83,113.48 151.3,115.17 149.06,118.81 	"/>
	<path class="st3" d="M186.18,94.31c0-8.01-6.77-14.5-15.12-14.5c-8.35,0-15.12,6.49-15.12,14.5c0,8.01,6.77,14.5,15.12,14.5
		C179.41,108.81,186.18,102.32,186.18,94.31"/>
</g>
</svg>
