<?xml version="1.0" encoding="utf-8"?>
<!-- Generator: Adobe Illustrator 23.0.2, SVG Export Plug-In . SVG Version: 6.00 Build 0)  -->
<svg version="1.1" id="Layer_1" xmlns="http://www.w3.org/2000/svg" xmlns:xlink="http://www.w3.org/1999/xlink" x="0px" y="0px"
	 viewBox="0 0 141.29 198.74" style="enable-background:new 0 0 141.29 198.74;" xml:space="preserve">
<style type="text/css">
	.st0{fill:#A1B7C6;}
	.st1{fill:#799CB2;}
	.st2{fill:#091E40;}
	.st3{font-family:'FreightSansProMedium-Regular';}
	.st4{font-size:8px;}
	.st5{fill:#231F20;}
	.st6{font-family:'FreightSansProLight-Italic';}
	.st7{fill:#2C4F6B;}
	.st8{font-family:'FreightSansProSemibold-Regular';}
</style>
<polyline class="st0" points="32.05,149.29 31.93,149.29 31.93,22.46 86.73,22.46 32.05,22.46 32.05,149.29 "/>
<polyline class="st0" points="103.97,149.29 32.05,149.29 86.73,149.29 86.73,22.46 103.97,22.46 103.97,149.29 "/>
<rect x="32.05" y="22.46" class="st1" width="54.68" height="126.83"/>
<polyline class="st2" points="139.93,76.32 139.93,76.07 131.54,76.07 131.54,22.71 139.68,22.71 139.68,76.32 139.93,76.32 
	139.93,76.07 139.93,76.32 140.18,76.32 140.18,22.46 140.11,22.29 139.93,22.21 131.29,22.21 131.12,22.29 131.04,22.46 
	131.04,76.32 131.12,76.5 131.29,76.57 139.93,76.57 140.11,76.5 140.18,76.32 139.93,76.32 "/>
<polyline class="st2" points="112.57,76.63 112.57,76.38 104.18,76.38 104.18,22.71 112.32,22.71 112.32,76.63 112.57,76.63 
	112.57,76.38 112.57,76.63 112.82,76.63 112.82,22.46 112.75,22.29 112.57,22.21 103.93,22.21 103.76,22.29 103.68,22.46 
	103.68,76.63 103.76,76.81 103.93,76.88 112.57,76.88 112.75,76.81 112.82,76.63 112.57,76.63 "/>
<path class="st2" d="M131.29,40.71h8.64c0.14,0,0.25-0.11,0.25-0.25c0-0.14-0.11-0.25-0.25-0.25h-8.64c-0.14,0-0.25,0.11-0.25,0.25
	C131.04,40.6,131.15,40.71,131.29,40.71"/>
<path class="st2" d="M131.29,58.71h8.64c0.14,0,0.25-0.11,0.25-0.25c0-0.14-0.11-0.25-0.25-0.25h-8.64c-0.14,0-0.25,0.11-0.25,0.25
	C131.04,58.6,131.15,58.71,131.29,58.71"/>
<polyline class="st2" points="103.93,76.63 103.93,76.38 95.54,76.38 95.54,22.71 103.68,22.71 103.68,76.63 103.93,76.63 
	103.93,76.38 103.93,76.63 104.18,76.63 104.18,22.46 104.11,22.29 103.93,22.21 95.29,22.21 95.12,22.29 95.04,22.46 95.04,76.63 
	95.12,76.81 95.29,76.88 103.93,76.88 104.11,76.81 104.18,76.63 103.93,76.63 "/>
<path class="st2" d="M77.65,149.54h63c0.14,0,0.25-0.11,0.25-0.25c0-0.14-0.11-0.25-0.25-0.25h-63c-0.14,0-0.25,0.11-0.25,0.25
	C77.4,149.43,77.51,149.54,77.65,149.54"/>
<path class="st2" d="M68.65,104.81h34.56c0.14,0,0.25-0.11,0.25-0.25c0-0.14-0.11-0.25-0.25-0.25H68.65c-0.14,0-0.25,0.11-0.25,0.25
	C68.4,104.7,68.51,104.81,68.65,104.81"/>
<path class="st2" d="M104.65,104.81h34.56c0.14,0,0.25-0.11,0.25-0.25c0-0.14-0.11-0.25-0.25-0.25h-34.56
	c-0.14,0-0.25,0.11-0.25,0.25C104.4,104.7,104.51,104.81,104.65,104.81"/>
<path class="st2" d="M77.65,102.87h63c0.14,0,0.25-0.11,0.25-0.25c0-0.14-0.11-0.25-0.25-0.25h-63c-0.14,0-0.25,0.11-0.25,0.25
	C77.4,102.76,77.51,102.87,77.65,102.87"/>
<path class="st2" d="M139.21,147.55h-34.56c-0.14,0-0.25,0.11-0.25,0.25c0,0.14,0.11,0.25,0.25,0.25h34.56
	c0.14,0,0.25-0.11,0.25-0.25C139.46,147.66,139.35,147.55,139.21,147.55"/>
<path class="st2" d="M103.46,147.36v-42.8c0-0.14-0.11-0.25-0.25-0.25c-0.14,0-0.25,0.11-0.25,0.25v42.8c0,0.14,0.11,0.25,0.25,0.25
	C103.35,147.61,103.46,147.5,103.46,147.36"/>
<path class="st2" d="M104.9,147.36v-42.8c0-0.14-0.11-0.25-0.25-0.25c-0.14,0-0.25,0.11-0.25,0.25v42.8c0,0.14,0.11,0.25,0.25,0.25
	C104.79,147.61,104.9,147.5,104.9,147.36"/>
<path class="st2" d="M139.46,147.36v-42.8c0-0.14-0.11-0.25-0.25-0.25c-0.14,0-0.25,0.11-0.25,0.25v42.8c0,0.14,0.11,0.25,0.25,0.25
	C139.35,147.61,139.46,147.5,139.46,147.36"/>
<path class="st2" d="M140.9,149.29v-46.66c0-0.14-0.11-0.25-0.25-0.25c-0.14,0-0.25,0.11-0.25,0.25v46.66
	c0,0.14,0.11,0.25,0.25,0.25C140.79,149.54,140.9,149.43,140.9,149.29"/>
<polyline class="st2" points="76.57,76.46 76.57,76.21 68.18,76.21 68.18,22.71 76.32,22.71 76.32,76.46 76.57,76.46 76.57,76.21 
	76.57,76.46 76.82,76.46 76.82,22.46 76.75,22.29 76.57,22.21 67.93,22.21 67.76,22.29 67.68,22.46 67.68,76.46 67.76,76.64 
	67.93,76.71 76.57,76.71 76.75,76.64 76.82,76.46 76.57,76.46 "/>
<path class="st2" d="M67.46,147.36v-42.8c0-0.14-0.11-0.25-0.25-0.25c-0.14,0-0.25,0.11-0.25,0.25v42.8c0,0.14,0.11,0.25,0.25,0.25
	C67.35,147.61,67.46,147.5,67.46,147.36"/>
<polyline class="st2" points="40.57,76.32 40.57,76.07 32.18,76.07 32.18,22.71 40.32,22.71 40.32,76.32 40.57,76.32 40.57,76.07 
	40.57,76.32 40.82,76.32 40.82,22.46 40.75,22.29 40.57,22.21 31.93,22.21 31.76,22.29 31.68,22.46 31.68,76.32 31.76,76.5 
	31.93,76.57 40.57,76.57 40.75,76.5 40.82,76.32 40.57,76.32 "/>
<path class="st2" d="M31.93,76.71h8.64c0.14,0,0.25-0.11,0.25-0.25c0-0.14-0.11-0.25-0.25-0.25h-8.64c-0.14,0-0.25,0.11-0.25,0.25
	C31.68,76.6,31.8,76.71,31.93,76.71"/>
<path class="st2" d="M95.29,58.71h17.28c0.14,0,0.25-0.11,0.25-0.25c0-0.14-0.11-0.25-0.25-0.25H95.29c-0.14,0-0.25,0.11-0.25,0.25
	C95.04,58.6,95.15,58.71,95.29,58.71"/>
<path class="st2" d="M59.29,58.71h17.28c0.14,0,0.25-0.11,0.25-0.25c0-0.14-0.11-0.25-0.25-0.25H59.29c-0.14,0-0.25,0.11-0.25,0.25
	C59.04,58.6,59.16,58.71,59.29,58.71"/>
<path class="st2" d="M31.93,58.71h8.64c0.14,0,0.25-0.11,0.25-0.25c0-0.14-0.11-0.25-0.25-0.25h-8.64c-0.14,0-0.25,0.11-0.25,0.25
	C31.68,58.6,31.8,58.71,31.93,58.71"/>
<path class="st2" d="M95.29,40.71h17.28c0.14,0,0.25-0.11,0.25-0.25c0-0.14-0.11-0.25-0.25-0.25H95.29c-0.14,0-0.25,0.11-0.25,0.25
	C95.04,40.6,95.15,40.71,95.29,40.71"/>
<path class="st2" d="M59.29,40.71h17.28c0.14,0,0.25-0.11,0.25-0.25c0-0.14-0.11-0.25-0.25-0.25H59.29c-0.14,0-0.25,0.11-0.25,0.25
	C59.04,40.6,59.16,40.71,59.29,40.71"/>
<path class="st2" d="M31.93,40.71h8.64c0.14,0,0.25-0.11,0.25-0.25c0-0.14-0.11-0.25-0.25-0.25h-8.64c-0.14,0-0.25,0.11-0.25,0.25
	C31.68,40.6,31.8,40.71,31.93,40.71"/>
<path class="st2" d="M32.65,148.05h34.56c0.14,0,0.25-0.11,0.25-0.25c0-0.14-0.11-0.25-0.25-0.25H32.65c-0.14,0-0.25,0.11-0.25,0.25
	C32.4,147.94,32.52,148.05,32.65,148.05"/>
<path class="st2" d="M68.65,148.05h34.56c0.14,0,0.25-0.11,0.25-0.25c0-0.14-0.11-0.25-0.25-0.25H68.65c-0.14,0-0.25,0.11-0.25,0.25
	C68.4,147.94,68.51,148.05,68.65,148.05"/>
<path class="st2" d="M31.21,149.54h48.12c0.14,0,0.25-0.11,0.25-0.25c0-0.14-0.11-0.25-0.25-0.25H31.21c-0.14,0-0.25,0.11-0.25,0.25
	C30.96,149.43,31.08,149.54,31.21,149.54"/>
<path class="st2" d="M32.89,104.81h34.32c0.14,0,0.25-0.11,0.25-0.25c0-0.14-0.11-0.25-0.25-0.25H32.89c-0.14,0-0.25,0.11-0.25,0.25
	C32.64,104.7,32.76,104.81,32.89,104.81"/>
<path class="st2" d="M31.21,102.88h48.12c0.14,0,0.25-0.11,0.25-0.25c0-0.14-0.11-0.25-0.25-0.25H31.21c-0.14,0-0.25,0.11-0.25,0.25
	C30.96,102.76,31.08,102.88,31.21,102.88"/>
<path class="st2" d="M68.9,147.36v-42.8c0-0.14-0.11-0.25-0.25-0.25c-0.14,0-0.25,0.11-0.25,0.25v42.8c0,0.14,0.11,0.25,0.25,0.25
	C68.79,147.61,68.9,147.5,68.9,147.36"/>
<path class="st2" d="M31.46,148.84v-46.21c0-0.14-0.11-0.25-0.25-0.25c-0.14,0-0.25,0.11-0.25,0.25v46.21
	c0,0.14,0.11,0.25,0.25,0.25C31.35,149.09,31.46,148.98,31.46,148.84"/>
<path class="st2" d="M32.9,147.36v-42.8c0-0.14-0.11-0.25-0.25-0.25c-0.14,0-0.25,0.11-0.25,0.25v42.8c0,0.14,0.11,0.25,0.25,0.25
	C32.79,147.61,32.9,147.5,32.9,147.36"/>
<polyline class="st2" points="67.93,76.46 67.93,76.21 59.54,76.21 59.54,22.71 67.68,22.71 67.68,76.46 67.93,76.46 67.93,76.21 
	67.93,76.46 68.18,76.46 68.18,22.46 68.11,22.29 67.93,22.21 59.29,22.21 59.12,22.29 59.04,22.46 59.04,76.46 59.12,76.64 
	59.29,76.71 67.93,76.71 68.11,76.64 68.18,76.46 67.93,76.46 "/>
<path class="st2" d="M104.18,153.68v-2.5c0-0.14-0.11-0.25-0.25-0.25c-0.14,0-0.25,0.11-0.25,0.25v2.5c0,0.14,0.11,0.25,0.25,0.25
	C104.07,153.93,104.18,153.82,104.18,153.68"/>
<path class="st2" d="M104.18,23.71v-5.1c0-0.14-0.11-0.25-0.25-0.25c-0.14,0-0.25,0.11-0.25,0.25v5.1c0,0.14,0.11,0.25,0.25,0.25
	C104.07,23.96,104.18,23.85,104.18,23.71 M104.18,33.91v-5.1c0-0.14-0.11-0.25-0.25-0.25c-0.14,0-0.25,0.11-0.25,0.25v5.1
	c0,0.14,0.11,0.25,0.25,0.25C104.07,34.16,104.18,34.05,104.18,33.91z M104.18,44.11v-5.1c0-0.14-0.11-0.25-0.25-0.25
	c-0.14,0-0.25,0.11-0.25,0.25v5.1c0,0.14,0.11,0.25,0.25,0.25C104.07,44.36,104.18,44.25,104.18,44.11z M104.18,54.31v-5.1
	c0-0.14-0.11-0.25-0.25-0.25c-0.14,0-0.25,0.11-0.25,0.25v5.1c0,0.14,0.11,0.25,0.25,0.25C104.07,54.56,104.18,54.44,104.18,54.31z
	 M104.18,64.5v-5.1c0-0.14-0.11-0.25-0.25-0.25c-0.14,0-0.25,0.11-0.25,0.25v5.1c0,0.14,0.11,0.25,0.25,0.25
	C104.07,64.75,104.18,64.64,104.18,64.5z M104.18,74.7v-5.1c0-0.14-0.11-0.25-0.25-0.25c-0.14,0-0.25,0.11-0.25,0.25v5.1
	c0,0.14,0.11,0.25,0.25,0.25C104.07,74.95,104.18,74.84,104.18,74.7z M104.18,84.9v-5.1c0-0.14-0.11-0.25-0.25-0.25
	c-0.14,0-0.25,0.11-0.25,0.25v5.1c0,0.14,0.11,0.25,0.25,0.25C104.07,85.15,104.18,85.04,104.18,84.9z M104.18,95.1V90
	c0-0.14-0.11-0.25-0.25-0.25c-0.14,0-0.25,0.11-0.25,0.25v5.1c0,0.14,0.11,0.25,0.25,0.25C104.07,95.35,104.18,95.23,104.18,95.1z
	 M104.18,105.29v-5.1c0-0.14-0.11-0.25-0.25-0.25c-0.14,0-0.25,0.11-0.25,0.25v5.1c0,0.14,0.11,0.25,0.25,0.25
	C104.07,105.54,104.18,105.43,104.18,105.29z M104.18,115.49v-5.1c0-0.14-0.11-0.25-0.25-0.25c-0.14,0-0.25,0.11-0.25,0.25v5.1
	c0,0.14,0.11,0.25,0.25,0.25C104.07,115.74,104.18,115.63,104.18,115.49z M104.18,125.69v-5.1c0-0.14-0.11-0.25-0.25-0.25
	c-0.14,0-0.25,0.11-0.25,0.25v5.1c0,0.14,0.11,0.25,0.25,0.25C104.07,125.94,104.18,125.83,104.18,125.69z M104.18,135.89v-5.1
	c0-0.14-0.11-0.25-0.25-0.25c-0.14,0-0.25,0.11-0.25,0.25v5.1c0,0.14,0.11,0.25,0.25,0.25
	C104.07,136.14,104.18,136.02,104.18,135.89z M104.18,146.08v-5.1c0-0.14-0.11-0.25-0.25-0.25c-0.14,0-0.25,0.11-0.25,0.25v5.1
	c0,0.14,0.11,0.25,0.25,0.25C104.07,146.33,104.18,146.22,104.18,146.08z"/>
<path class="st2" d="M104.18,13.52v-2.5c0-0.14-0.11-0.25-0.25-0.25c-0.14,0-0.25,0.11-0.25,0.25v2.5c0,0.14,0.11,0.25,0.25,0.25
	C104.07,13.77,104.18,13.66,104.18,13.52"/>
<path class="st2" d="M32.18,153.42v-2.5c0-0.14-0.11-0.25-0.25-0.25c-0.14,0-0.25,0.11-0.25,0.25v2.5c0,0.14,0.11,0.25,0.25,0.25
	C32.07,153.67,32.18,153.56,32.18,153.42"/>
<path class="st2" d="M32.18,23.94v-5.08c0-0.14-0.11-0.25-0.25-0.25c-0.14,0-0.25,0.11-0.25,0.25v5.08c0,0.14,0.11,0.25,0.25,0.25
	C32.07,24.19,32.18,24.08,32.18,23.94 M32.18,34.1v-5.08c0-0.14-0.11-0.25-0.25-0.25c-0.14,0-0.25,0.11-0.25,0.25v5.08
	c0,0.14,0.11,0.25,0.25,0.25C32.07,34.35,32.18,34.24,32.18,34.1z M32.18,44.26v-5.08c0-0.14-0.11-0.25-0.25-0.25
	c-0.14,0-0.25,0.11-0.25,0.25v5.08c0,0.14,0.11,0.25,0.25,0.25C32.07,44.51,32.18,44.39,32.18,44.26z M32.18,54.41v-5.08
	c0-0.14-0.11-0.25-0.25-0.25c-0.14,0-0.25,0.11-0.25,0.25v5.08c0,0.14,0.11,0.25,0.25,0.25C32.07,54.66,32.18,54.55,32.18,54.41z
	 M32.18,64.57v-5.08c0-0.14-0.11-0.25-0.25-0.25c-0.14,0-0.25,0.11-0.25,0.25v5.08c0,0.14,0.11,0.25,0.25,0.25
	C32.07,64.82,32.18,64.71,32.18,64.57z M32.18,74.73v-5.08c0-0.14-0.11-0.25-0.25-0.25c-0.14,0-0.25,0.11-0.25,0.25v5.08
	c0,0.14,0.11,0.25,0.25,0.25C32.07,74.98,32.18,74.87,32.18,74.73z M32.18,84.89v-5.08c0-0.14-0.11-0.25-0.25-0.25
	c-0.14,0-0.25,0.11-0.25,0.25v5.08c0,0.14,0.11,0.25,0.25,0.25C32.07,85.14,32.18,85.03,32.18,84.89z M32.18,95.05v-5.08
	c0-0.14-0.11-0.25-0.25-0.25c-0.14,0-0.25,0.11-0.25,0.25v5.08c0,0.14,0.11,0.25,0.25,0.25C32.07,95.3,32.18,95.19,32.18,95.05z
	 M32.18,105.21v-5.08c0-0.14-0.11-0.25-0.25-0.25c-0.14,0-0.25,0.11-0.25,0.25v5.08c0,0.14,0.11,0.25,0.25,0.25
	C32.07,105.46,32.18,105.34,32.18,105.21z M32.18,115.36v-5.08c0-0.14-0.11-0.25-0.25-0.25c-0.14,0-0.25,0.11-0.25,0.25v5.08
	c0,0.14,0.11,0.25,0.25,0.25C32.07,115.61,32.18,115.5,32.18,115.36z M32.18,125.52v-5.08c0-0.14-0.11-0.25-0.25-0.25
	c-0.14,0-0.25,0.11-0.25,0.25v5.08c0,0.14,0.11,0.25,0.25,0.25C32.07,125.77,32.18,125.66,32.18,125.52z M32.18,135.68v-5.08
	c0-0.14-0.11-0.25-0.25-0.25c-0.14,0-0.25,0.11-0.25,0.25v5.08c0,0.14,0.11,0.25,0.25,0.25C32.07,135.93,32.18,135.82,32.18,135.68z
	 M32.18,145.84v-5.08c0-0.14-0.11-0.25-0.25-0.25c-0.14,0-0.25,0.11-0.25,0.25v5.08c0,0.14,0.11,0.25,0.25,0.25
	C32.07,146.09,32.18,145.98,32.18,145.84z"/>
<path class="st2" d="M32.18,13.78v-2.5c0-0.14-0.11-0.25-0.25-0.25c-0.14,0-0.25,0.11-0.25,0.25v2.5c0,0.14,0.11,0.25,0.25,0.25
	C32.07,14.03,32.18,13.92,32.18,13.78"/>
<path class="st2" d="M68.18,153.42v-2.5c0-0.14-0.11-0.25-0.25-0.25c-0.14,0-0.25,0.11-0.25,0.25v2.5c0,0.14,0.11,0.25,0.25,0.25
	C68.07,153.67,68.18,153.56,68.18,153.42"/>
<path class="st2" d="M68.18,23.69v-5.09c0-0.14-0.11-0.25-0.25-0.25c-0.14,0-0.25,0.11-0.25,0.25v5.09c0,0.14,0.11,0.25,0.25,0.25
	C68.07,23.94,68.18,23.83,68.18,23.69 M68.18,33.87v-5.09c0-0.14-0.11-0.25-0.25-0.25c-0.14,0-0.25,0.11-0.25,0.25v5.09
	c0,0.14,0.11,0.25,0.25,0.25C68.07,34.12,68.18,34.01,68.18,33.87z M68.18,44.05v-5.09c0-0.14-0.11-0.25-0.25-0.25
	c-0.14,0-0.25,0.11-0.25,0.25v5.09c0,0.14,0.11,0.25,0.25,0.25C68.07,44.3,68.18,44.19,68.18,44.05z M68.18,54.23v-5.09
	c0-0.14-0.11-0.25-0.25-0.25c-0.14,0-0.25,0.11-0.25,0.25v5.09c0,0.14,0.11,0.25,0.25,0.25C68.07,54.48,68.18,54.37,68.18,54.23z
	 M68.18,64.41v-5.09c0-0.14-0.11-0.25-0.25-0.25c-0.14,0-0.25,0.11-0.25,0.25v5.09c0,0.14,0.11,0.25,0.25,0.25
	C68.07,64.66,68.18,64.54,68.18,64.41z M68.18,74.58v-5.09c0-0.14-0.11-0.25-0.25-0.25c-0.14,0-0.25,0.11-0.25,0.25v5.09
	c0,0.14,0.11,0.25,0.25,0.25C68.07,74.83,68.18,74.72,68.18,74.58z M68.18,84.76v-5.09c0-0.14-0.11-0.25-0.25-0.25
	c-0.14,0-0.25,0.11-0.25,0.25v5.09c0,0.14,0.11,0.25,0.25,0.25C68.07,85.01,68.18,84.9,68.18,84.76z M68.18,94.94v-5.09
	c0-0.14-0.11-0.25-0.25-0.25c-0.14,0-0.25,0.11-0.25,0.25v5.09c0,0.14,0.11,0.25,0.25,0.25C68.07,95.19,68.18,95.08,68.18,94.94z
	 M68.18,105.12v-5.09c0-0.14-0.11-0.25-0.25-0.25c-0.14,0-0.25,0.11-0.25,0.25v5.09c0,0.14,0.11,0.25,0.25,0.25
	C68.07,105.37,68.18,105.26,68.18,105.12z M68.18,115.3v-5.09c0-0.14-0.11-0.25-0.25-0.25c-0.14,0-0.25,0.11-0.25,0.25v5.09
	c0,0.14,0.11,0.25,0.25,0.25C68.07,115.55,68.18,115.43,68.18,115.3z M68.18,125.47v-5.09c0-0.14-0.11-0.25-0.25-0.25
	c-0.14,0-0.25,0.11-0.25,0.25v5.09c0,0.14,0.11,0.25,0.25,0.25C68.07,125.72,68.18,125.61,68.18,125.47z M68.18,135.65v-5.09
	c0-0.14-0.11-0.25-0.25-0.25c-0.14,0-0.25,0.11-0.25,0.25v5.09c0,0.14,0.11,0.25,0.25,0.25C68.07,135.9,68.18,135.79,68.18,135.65z
	 M68.18,145.83v-5.09c0-0.14-0.11-0.25-0.25-0.25c-0.14,0-0.25,0.11-0.25,0.25v5.09c0,0.14,0.11,0.25,0.25,0.25
	C68.07,146.08,68.18,145.97,68.18,145.83z"/>
<path class="st2" d="M68.18,13.52v-2.5c0-0.14-0.11-0.25-0.25-0.25c-0.14,0-0.25,0.11-0.25,0.25v2.5c0,0.14,0.11,0.25,0.25,0.25
	C68.07,13.77,68.18,13.66,68.18,13.52"/>
<polyline class="st2" points="15.9,22.34 1,22.34 0.88,22.46 1,22.59 15.9,22.59 16.03,22.46 15.9,22.34 "/>
<rect x="3.31" y="99.66" class="st2" width="0.25" height="52.34"/>
<rect x="29.47" y="4.27" width="9.29" height="0.25"/>
<rect x="59.29" y="4.27" class="st2" width="9.75" height="0.25"/>
<rect x="67.81" y="1" width="0.25" height="8.25"/>
<rect x="31.81" y="1" width="0.25" height="8.25"/>
<text transform="matrix(1 0 0 1 39.542 6.5)" class="st2 st3 st4">10’- 6”</text>
<rect x="1" y="148.71" width="14.9" height="0.25"/>
<text transform="matrix(-6.513743e-17 -1.0638 1 -6.123234e-17 6.5002 95.9277)" class="st2 st3 st4">33’-0”</text>
<text transform="matrix(-6.513743e-17 -1.0638 1 -6.123234e-17 26.4584 134.9302)"><tspan x="0" y="0" class="st5 st6 st4">OPEN / SUPPO</tspan><tspan x="45.71" y="0" class="st5 st6 st4">R</tspan><tspan x="49.7" y="0" class="st5 st6 st4">T R</tspan><tspan x="59.83" y="0" class="st5 st6 st4">A</tspan><tspan x="64.05" y="0" class="st5 st6 st4">TIO TBD</tspan></text>
<rect x="3.31" y="19.27" class="st2" width="0.25" height="52.21"/>
<path class="st2" d="M103.46,161.16v36.44l0.07,0.18l0.18,0.07h36.44l0.18-0.07l0.07-0.18v-36.44l-0.07-0.18l-0.18-0.07h-1.55v-0.38
	h2.18v37.71h-37.71v-37.71h25.66v0.38h-25.03C103.57,160.91,103.46,161.02,103.46,161.16c0,0.14,0.11,0.25,0.25,0.25h25.28
	l0.18-0.07l0.07-0.18v-0.88l-0.07-0.18l-0.18-0.07h-26.16l-0.18,0.07l-0.07,0.18v38.21l0.07,0.18l0.18,0.07h38.21l0.18-0.07
	l0.07-0.18v-38.21l-0.07-0.18l-0.18-0.07h-2.68l-0.18,0.07l-0.07,0.18v0.88l0.07,0.18l0.18,0.07h1.55v35.94h-35.94v-36.19
	c0-0.14-0.11-0.25-0.25-0.25C103.57,160.91,103.46,161.02,103.46,161.16L103.46,161.16"/>
<rect x="103.96" y="161.41" class="st0" width="18.3" height="35.94"/>
<polyline class="st7" points="122.27,197.61 103.71,197.61 103.71,161.16 122.27,161.16 122.27,161.41 103.96,161.41 103.96,197.36 
	122.27,197.36 122.27,197.61 "/>
<path class="st2" d="M138.1,161.16v7.97h0.25l-0.01-0.25c0,0-0.07,0-0.22,0c-0.69,0-2.95-0.09-4.99-1.1
	c-2.04-1.02-3.89-2.9-3.89-6.62c0-0.14-0.11-0.25-0.25-0.25c-0.14,0-0.25,0.11-0.25,0.25c-0.01,3.9,2.01,6.01,4.17,7.07
	c2.16,1.07,4.48,1.15,5.21,1.15c0.15,0,0.23,0,0.24,0c0.13-0.01,0.24-0.12,0.24-0.25v-7.97c0-0.14-0.11-0.25-0.25-0.25
	C138.22,160.91,138.1,161.02,138.1,161.16"/>
<text transform="matrix(1 0 0 1 45.3271 159.3457)" class="st2 st8 st4">Lab</text>
<text transform="matrix(1 0 0 1 38.7271 168.9463)" class="st2 st8 st4">Module</text>
<text transform="matrix(1 0 0 1 108.5669 182.8008)" class="st2 st3 st4">10’ X 10’</text>
</svg>
