<?xml version="1.0" encoding="utf-8"?>
<!-- Generator: Adobe Illustrator 23.0.2, SVG Export Plug-In . SVG Version: 6.00 Build 0)  -->
<svg version="1.1" xmlns="http://www.w3.org/2000/svg" xmlns:xlink="http://www.w3.org/1999/xlink" x="0px" y="0px"
	 viewBox="0 0 36.5 50.42" style="enable-background:new 0 0 36.5 50.42;" xml:space="preserve">
<style type="text/css">
	.st0{fill:#50869F;}
	.st1{fill:#231F20;}
</style>
<g id="Linework">
	<path class="st0" d="M0.25,50.42h2.5C2.89,50.42,3,50.3,3,50.17c0-0.14-0.11-0.25-0.25-0.25h-2.5C0.11,49.92,0,50.03,0,50.17
		C0,50.3,0.11,50.42,0.25,50.42"/>
	<path class="st0" d="M24.89,50.42h4.43c0.14,0,0.25-0.11,0.25-0.25c0-0.14-0.11-0.25-0.25-0.25h-4.43c-0.14,0-0.25,0.11-0.25,0.25
		C24.64,50.3,24.75,50.42,24.89,50.42 M16.04,50.42h4.43c0.14,0,0.25-0.11,0.25-0.25c0-0.14-0.11-0.25-0.25-0.25h-4.43
		c-0.14,0-0.25,0.11-0.25,0.25C15.79,50.3,15.9,50.42,16.04,50.42z M7.18,50.42h4.43c0.14,0,0.25-0.11,0.25-0.25
		c0-0.14-0.11-0.25-0.25-0.25H7.18c-0.14,0-0.25,0.11-0.25,0.25C6.93,50.3,7.04,50.42,7.18,50.42z"/>
	<path class="st0" d="M33.75,50.42h2.5c0.14,0,0.25-0.11,0.25-0.25c0-0.14-0.11-0.25-0.25-0.25h-2.5c-0.14,0-0.25,0.11-0.25,0.25
		C33.5,50.3,33.61,50.42,33.75,50.42"/>
	<path class="st0" d="M0,34.15v2.5c0,0.14,0.11,0.25,0.25,0.25c0.14,0,0.25-0.11,0.25-0.25v-2.5c0-0.14-0.11-0.25-0.25-0.25
		C0.11,33.9,0,34.01,0,34.15"/>
	<path class="st0" d="M0,40.32v3.67c0,0.14,0.11,0.25,0.25,0.25c0.14,0,0.25-0.11,0.25-0.25v-3.67c0-0.14-0.11-0.25-0.25-0.25
		C0.11,40.07,0,40.18,0,40.32"/>
	<path class="st0" d="M0,47.67v2.5c0,0.14,0.11,0.25,0.25,0.25c0.14,0,0.25-0.11,0.25-0.25v-2.5c0-0.14-0.11-0.25-0.25-0.25
		C0.11,47.42,0,47.53,0,47.67"/>
	<path class="st0" d="M0.25,0.5h2.5C2.89,0.5,3,0.39,3,0.25C3,0.11,2.89,0,2.75,0h-2.5C0.11,0,0,0.11,0,0.25
		C0,0.39,0.11,0.5,0.25,0.5"/>
	<path class="st0" d="M24.89,0.5h4.43c0.14,0,0.25-0.11,0.25-0.25c0-0.14-0.11-0.25-0.25-0.25h-4.43c-0.14,0-0.25,0.11-0.25,0.25
		C24.64,0.39,24.75,0.5,24.89,0.5 M16.04,0.5h4.43c0.14,0,0.25-0.11,0.25-0.25C20.71,0.11,20.6,0,20.46,0h-4.43
		c-0.14,0-0.25,0.11-0.25,0.25C15.79,0.39,15.9,0.5,16.04,0.5z M7.18,0.5h4.43c0.14,0,0.25-0.11,0.25-0.25
		c0-0.14-0.11-0.25-0.25-0.25H7.18C7.04,0,6.93,0.11,6.93,0.25C6.93,0.39,7.04,0.5,7.18,0.5z"/>
	<path class="st0" d="M33.75,0.5h2.5c0.14,0,0.25-0.11,0.25-0.25C36.5,0.11,36.39,0,36.25,0h-2.5c-0.14,0-0.25,0.11-0.25,0.25
		C33.5,0.39,33.61,0.5,33.75,0.5"/>
	<path class="st0" d="M0.5,16.39v-2.5c0-0.14-0.11-0.25-0.25-0.25C0.11,13.64,0,13.75,0,13.89v2.5c0,0.14,0.11,0.25,0.25,0.25
		C0.39,16.64,0.5,16.52,0.5,16.39"/>
	<path class="st0" d="M0.5,10.17V6.46c0-0.14-0.11-0.25-0.25-0.25C0.11,6.21,0,6.32,0,6.46v3.71c0,0.14,0.11,0.25,0.25,0.25
		C0.39,10.42,0.5,10.31,0.5,10.17"/>
	<path class="st0" d="M0.5,2.75v-2.5C0.5,0.11,0.39,0,0.25,0C0.11,0,0,0.11,0,0.25v2.5C0,2.89,0.11,3,0.25,3
		C0.39,3,0.5,2.89,0.5,2.75"/>
	<path class="st0" d="M36,34.15v2.5c0,0.14,0.11,0.25,0.25,0.25c0.14,0,0.25-0.11,0.25-0.25v-2.5c0-0.14-0.11-0.25-0.25-0.25
		C36.11,33.9,36,34.01,36,34.15"/>
	<path class="st0" d="M36,40.32v3.67c0,0.14,0.11,0.25,0.25,0.25c0.14,0,0.25-0.11,0.25-0.25v-3.67c0-0.14-0.11-0.25-0.25-0.25
		C36.11,40.07,36,40.18,36,40.32"/>
	<path class="st0" d="M36,47.67v2.5c0,0.14,0.11,0.25,0.25,0.25c0.14,0,0.25-0.11,0.25-0.25v-2.5c0-0.14-0.11-0.25-0.25-0.25
		C36.11,47.42,36,47.53,36,47.67"/>
	<path class="st0" d="M36.5,16.39v-2.5c0-0.14-0.11-0.25-0.25-0.25c-0.14,0-0.25,0.11-0.25,0.25v2.5c0,0.14,0.11,0.25,0.25,0.25
		C36.39,16.64,36.5,16.52,36.5,16.39"/>
	<path class="st0" d="M36.5,10.17V6.46c0-0.14-0.11-0.25-0.25-0.25C36.11,6.21,36,6.32,36,6.46v3.71c0,0.14,0.11,0.25,0.25,0.25
		C36.39,10.42,36.5,10.31,36.5,10.17"/>
	<path class="st0" d="M36.5,2.75v-2.5C36.5,0.11,36.39,0,36.25,0C36.11,0,36,0.11,36,0.25v2.5C36,2.89,36.11,3,36.25,3
		C36.39,3,36.5,2.89,36.5,2.75"/>
</g>
<g id="Seat">
	<polyline class="st0" points="21.61,11.23 21.37,12.55 20.65,13.63 19.57,14.35 18.25,14.59 16.93,14.35 15.85,13.63 15.13,12.55 
		14.89,11.23 15.13,9.91 15.85,8.83 16.93,8.11 18.25,7.87 19.57,8.11 20.65,8.83 21.37,9.91 21.61,11.23 	"/>
	<polyline class="st0" points="14.89,39.31 15.13,37.99 15.85,36.91 16.93,36.19 18.25,35.95 19.57,36.19 20.65,36.91 21.37,37.99 
		21.61,39.31 21.37,40.63 20.65,41.71 19.57,42.43 18.25,42.67 16.93,42.43 15.85,41.71 15.13,40.63 14.89,39.31 	"/>
</g>
<g id="Desk">
	<rect x="0.25" y="16.27" class="st0" width="36" height="9"/>
	<polyline class="st1" points="0.25,25.27 0.25,25.52 36.5,25.52 36.5,16.02 0,16.02 0,25.52 0.25,25.52 0.25,25.27 0.5,25.27 
		0.5,16.52 36,16.52 36,25.02 0.25,25.02 0.25,25.27 0.5,25.27 0.25,25.27 	"/>
	<rect x="0.25" y="25.27" class="st0" width="36" height="9"/>
	<polyline class="st1" points="36.25,25.27 36.25,25.02 0,25.02 0,34.52 36.5,34.52 36.5,25.02 36.25,25.02 36.25,25.27 36,25.27 
		36,34.02 0.5,34.02 0.5,25.52 36.25,25.52 36.25,25.27 36,25.27 36.25,25.27 	"/>
</g>
</svg>
