<?xml version="1.0" encoding="utf-8"?>
<!-- Generator: Adobe Illustrator 23.0.2, SVG Export Plug-In . SVG Version: 6.00 Build 0)  -->
<svg version="1.1" xmlns="http://www.w3.org/2000/svg" xmlns:xlink="http://www.w3.org/1999/xlink" x="0px" y="0px"
	 viewBox="0 0 58.08 49.2" style="enable-background:new 0 0 58.08 49.2;" xml:space="preserve">
<style type="text/css">
	.st0{fill:#E7194E;}
	.st1{fill:none;stroke:#000000;stroke-width:0.5;stroke-miterlimit:10;}
	.st2{fill:#DAD9D9;stroke:#231F20;stroke-width:0.5;stroke-miterlimit:10;}
</style>
<g id="Rect">
	<rect x="1.62" y="2.19" class="st0" width="0.5" height="45"/>
</g>
<g id="Linework">
	<path class="st1" d="M55.32,2.04V15.6 M41.76,0.36v1.68 M55.32,0.36v1.68 M57.72,0.36v48.48 M56.04,2.04v45 M2.04,2.04h39.72
		 M0.36,48.84h57.36 M2.04,47.04h54 M0.36,0.36v48.48 M2.04,2.04v45 M0.36,0.36h41.4"/>
	<path class="st1" d="M55.19,0.36h2.4 M1.91,47.04h24 M55.19,0.36h2.4 M55.19,2.04h0.72"/>
	<path class="st1" d="M55.32,2.04V15.6 M41.76,0.36v1.68 M55.32,0.36v1.68 M57.72,0.36v48.48 M56.04,2.04v45 M2.04,2.04h39.72
		 M0.36,48.84h57.36 M2.04,47.04h54 M0.36,0.36v48.48 M2.04,2.04v45 M0.36,0.36h41.4"/>
	<polygon class="st1" points="55.19,15.6 52.79,15.36 50.51,14.76 48.47,13.8 46.55,12.48 44.87,10.8 43.43,8.88 42.47,6.72 
		41.87,4.44 41.63,2.04 41.87,4.44 42.47,6.72 43.43,8.88 44.87,10.8 46.55,12.48 48.47,13.8 50.51,14.76 52.79,15.36 	"/>
	<path class="st1" d="M55.19,0.36h2.4 M1.91,47.04h24 M55.19,0.36h2.4 M55.19,2.04h0.72"/>
</g>
<g id="Desk">
	<polygon class="st2" points="21.12,24.6 20.88,23.28 20.16,22.2 19.08,21.48 17.76,21.24 16.56,21.48 15.36,22.2 14.64,23.28 
		14.4,24.6 14.64,25.92 15.36,27 16.56,27.72 17.76,27.96 19.08,27.72 20.16,27 20.88,25.92 	"/>
	<rect x="2.04" y="11.04" class="st2" width="9" height="27"/>
	<rect x="2.04" y="11.04" class="st2" width="9" height="27"/>
</g>
<g id="Person">
	<g>
		<polygon class="st0" points="30,18.48 30,26.14 30.28,26.73 30.81,27.14 32.13,27.14 32.13,36.01 32.38,36.79 32.88,37.39 
			36.91,37.39 37.41,36.89 37.63,36.17 37.63,26.96 38.56,26.96 39.33,26.62 39.8,25.86 39.8,18.14 39.47,17.67 38.98,17.34 
			38.17,17.15 31.92,17.15 31.06,17.29 30.5,17.67 		"/>
		<ellipse class="st0" cx="34.9" cy="13.23" rx="3.37" ry="3.23"/>
	</g>
	<g>
		<polygon class="st0" points="30,18.48 30,26.14 30.28,26.73 30.81,27.14 32.13,27.14 32.13,36.01 32.38,36.79 32.88,37.39 
			36.91,37.39 37.41,36.89 37.63,36.17 37.63,26.96 38.56,26.96 39.33,26.62 39.8,25.86 39.8,18.14 39.47,17.67 38.98,17.34 
			38.17,17.15 31.92,17.15 31.06,17.29 30.5,17.67 		"/>
		<ellipse class="st0" cx="34.9" cy="13.23" rx="3.37" ry="3.23"/>
	</g>
</g>
</svg>
