<?xml version="1.0" encoding="utf-8"?>
<!-- Generator: Adobe Illustrator 23.0.2, SVG Export Plug-In . SVG Version: 6.00 Build 0)  -->
<svg version="1.1" id="Person" xmlns="http://www.w3.org/2000/svg" xmlns:xlink="http://www.w3.org/1999/xlink" x="0px" y="0px"
	 viewBox="0 0 9.8 27.39" style="enable-background:new 0 0 9.8 27.39;" xml:space="preserve">
<style type="text/css">
	.st0{fill:#E7194E;}
</style>
<g>
	<polygon class="st0" points="0,8.48 0,16.14 0.28,16.73 0.81,17.14 2.13,17.14 2.13,26.01 2.38,26.79 2.88,27.39 6.91,27.39 
		7.41,26.89 7.63,26.17 7.63,16.96 8.56,16.96 9.33,16.62 9.8,15.86 9.8,8.14 9.47,7.67 8.98,7.34 8.17,7.15 1.92,7.15 1.06,7.29 
		0.5,7.67 	"/>
	<ellipse class="st0" cx="4.9" cy="3.23" rx="3.37" ry="3.23"/>
</g>
<g>
	<polygon class="st0" points="0,8.48 0,16.14 0.28,16.73 0.81,17.14 2.13,17.14 2.13,26.01 2.38,26.79 2.88,27.39 6.91,27.39 
		7.41,26.89 7.63,26.17 7.63,16.96 8.56,16.96 9.33,16.62 9.8,15.86 9.8,8.14 9.47,7.67 8.98,7.34 8.17,7.15 1.92,7.15 1.06,7.29 
		0.5,7.67 	"/>
	<ellipse class="st0" cx="4.9" cy="3.23" rx="3.37" ry="3.23"/>
</g>
</svg>
