<?xml version="1.0" encoding="utf-8"?>
<!-- Generator: Adobe Illustrator 23.0.2, SVG Export Plug-In . SVG Version: 6.00 Build 0)  -->
<svg version="1.1" xmlns="http://www.w3.org/2000/svg" xmlns:xlink="http://www.w3.org/1999/xlink" x="0px" y="0px"
	 viewBox="0 0 131.76 58.08" style="enable-background:new 0 0 131.76 58.08;" xml:space="preserve">
<style type="text/css">
	.st0{fill:#E7194E;}
	.st1{fill:none;stroke:#000000;stroke-width:0.72;stroke-linecap:round;stroke-linejoin:round;stroke-miterlimit:10;}
	.st2{fill:#DAD9D9;stroke:#231F20;stroke-width:0.5;stroke-miterlimit:10;}
</style>
<g id="Rect">
	<rect x="2.12" y="0.76" class="st0" width="17.2" height="55"/>
	<rect x="84.19" y="1.76" class="st0" width="23.87" height="54"/>
</g>
<g id="Linework">
	<polyline class="st1" points="82.32,2.04 83.04,2.04 83.04,56.04 2.04,56.04 2.04,2.04 	"/>
	<path class="st1" d="M84.72,2.04v54 M82.32,0.36h2.4"/>
	<polyline class="st1" points="84.72,56.04 129.72,56.04 129.72,2.04 129,2.04 	"/>
	<line class="st1" x1="115.56" y1="2.04" x2="84.72" y2="2.04"/>
	<polyline class="st1" points="0.36,57.72 131.4,57.72 131.4,0.36 129,0.36 	"/>
	<path class="st1" d="M129,2.04V15.6 M115.56,0.36v1.68 M129,0.36v1.68 M115.56,0.36H84.72"/>
	<polyline class="st1" points="115.56,2.04 115.68,4.44 116.28,6.72 117.36,8.76 118.68,10.68 120.36,12.36 122.28,13.8 
		124.44,14.76 126.72,15.36 129,15.6 	"/>
	<polyline class="st1" points="82.32,2.04 83.04,2.04 83.04,56.04 2.04,56.04 2.04,2.04 	"/>
	<path class="st1" d="M84.72,2.04v54 M82.32,0.36h2.4"/>
	<polyline class="st1" points="84.72,56.04 129.72,56.04 129.72,2.04 129,2.04 	"/>
	<line class="st1" x1="115.56" y1="2.04" x2="84.72" y2="2.04"/>
	<path class="st1" d="M129,2.04V15.6 M115.56,0.36v1.68 M129,0.36v1.68 M115.56,0.36H84.72"/>
	<path class="st1" d="M84.72,2.04v54 M82.32,0.36h2.4"/>
	<polyline class="st1" points="84.72,56.04 129.72,56.04 129.72,2.04 129,2.04 	"/>
	<line class="st1" x1="115.56" y1="2.04" x2="84.72" y2="2.04"/>
	<path class="st1" d="M129,2.04V15.6 M115.56,0.36v1.68 M129,0.36v1.68 M115.56,0.36H84.72"/>
	<path class="st1" d="M84.72,2.04v54 M0.36,0.36v57.36 M84.72,0.36h-2.4v1.68h0.72v54h-81V0.26H0.62"/>
	<polyline class="st1" points="84.72,56.04 129.72,56.04 129.72,2.04 129,2.04 	"/>
	<line class="st1" x1="115.56" y1="2.04" x2="84.72" y2="2.04"/>
	<path class="st1" d="M129,2.04V15.6 M115.56,0.36v1.68 M129,0.36v1.68 M115.56,0.36H84.72"/>
	<line class="st1" x1="3.62" y1="1.26" x2="27.62" y2="1.26"/>
	<line class="st1" x1="57.62" y1="1.26" x2="80.62" y2="1.26"/>
	<line class="st1" x1="26.62" y1="2.26" x2="58.62" y2="2.26"/>
</g>
<g id="Desk">
	<rect x="20.04" y="20.04" class="st2" width="45" height="18"/>
	<polygon class="st2" points="30.72,15.96 30.48,14.64 29.76,13.56 28.68,12.84 27.36,12.6 26.04,12.84 24.96,13.56 24.24,14.64 
		24,15.96 24.24,17.16 24.96,18.36 26.04,19.08 27.36,19.32 28.68,19.08 29.76,18.36 30.48,17.16 	"/>
	<polygon class="st2" points="40.8,15.96 40.56,14.64 39.84,13.56 38.76,12.84 37.44,12.6 36.24,12.84 35.04,13.56 34.32,14.64 
		34.08,15.96 34.32,17.16 35.04,18.36 36.24,19.08 37.44,19.32 38.76,19.08 39.84,18.36 40.56,17.16 	"/>
	<polygon class="st2" points="51,15.96 50.76,14.64 50.04,13.56 48.96,12.84 47.64,12.6 46.32,12.84 45.24,13.56 44.52,14.64 
		44.28,15.96 44.52,17.16 45.24,18.36 46.32,19.08 47.64,19.32 48.96,19.08 50.04,18.36 50.76,17.16 	"/>
	<polygon class="st2" points="61.08,15.96 60.84,14.64 60.12,13.56 59.04,12.84 57.72,12.6 56.4,12.84 55.32,13.56 54.6,14.64 
		54.36,15.96 54.6,17.16 55.32,18.36 56.4,19.08 57.72,19.32 59.04,19.08 60.12,18.36 60.84,17.16 	"/>
	<polygon class="st2" points="30.72,42.24 30.48,40.92 29.76,39.84 28.68,39.12 27.36,38.76 26.04,39.12 24.96,39.84 24.24,40.92 
		24,42.24 24.24,43.44 24.96,44.52 26.04,45.36 27.36,45.6 28.68,45.36 29.76,44.52 30.48,43.44 	"/>
	<polygon class="st2" points="40.8,42.24 40.56,40.92 39.84,39.84 38.76,39.12 37.44,38.76 36.24,39.12 35.04,39.84 34.32,40.92 
		34.08,42.24 34.32,43.44 35.04,44.52 36.24,45.36 37.44,45.6 38.76,45.36 39.84,44.52 40.56,43.44 	"/>
	<polygon class="st2" points="51,42.24 50.76,40.92 50.04,39.84 48.96,39.12 47.64,38.76 46.32,39.12 45.24,39.84 44.52,40.92 
		44.28,42.24 44.52,43.44 45.24,44.52 46.32,45.36 47.64,45.6 48.96,45.36 50.04,44.52 50.76,43.44 	"/>
	<polygon class="st2" points="61.08,42.24 60.84,40.92 60.12,39.84 59.04,39.12 57.72,38.76 56.4,39.12 55.32,39.84 54.6,40.92 
		54.36,42.24 54.6,43.44 55.32,44.52 56.4,45.36 57.72,45.6 59.04,45.36 60.12,44.52 60.84,43.44 	"/>
	<polygon class="st2" points="19.32,29.04 19.08,27.72 18.36,26.64 17.16,25.92 15.96,25.68 14.64,25.92 13.56,26.64 12.84,27.72 
		12.48,29.04 12.84,30.36 13.56,31.44 14.64,32.16 15.96,32.4 17.16,32.16 18.36,31.44 19.08,30.36 	"/>
	<polygon class="st2" points="72.6,29.04 72.24,27.72 71.52,26.64 70.44,25.92 69.12,25.68 67.92,25.92 66.84,26.64 66.12,27.72 
		65.76,29.04 66.12,30.36 66.84,31.44 67.92,32.16 69.12,32.4 70.44,32.16 71.52,31.44 72.24,30.36 	"/>
	<polygon class="st2" points="116.76,29.04 116.52,26.88 115.8,24.96 114.72,23.16 113.16,21.6 111.36,20.52 109.32,19.8 
		107.28,19.56 105.12,19.8 103.08,20.52 101.28,21.6 99.84,23.16 98.64,24.96 98.04,26.88 97.8,29.04 98.04,31.2 98.64,33.12 
		99.84,34.92 101.28,36.48 103.08,37.56 105.12,38.28 107.28,38.52 109.32,38.28 111.36,37.56 113.16,36.48 114.72,34.92 
		115.8,33.12 116.52,31.2 	"/>
	<polygon class="st2" points="102.48,21 102.24,19.68 101.52,18.6 100.44,17.88 99.12,17.64 97.8,17.88 96.72,18.6 96,19.68 
		95.76,21 96,22.32 96.72,23.4 97.8,24.12 99.12,24.36 100.44,24.12 101.52,23.4 102.24,22.32 	"/>
	<polygon class="st2" points="102.48,37.08 102.24,35.76 101.52,34.68 100.44,33.96 99.12,33.72 97.8,33.96 96.72,34.68 96,35.76 
		95.76,37.08 96,38.28 96.72,39.48 97.8,40.2 99.12,40.44 100.44,40.2 101.52,39.48 102.24,38.28 	"/>
	<polygon class="st2" points="118.8,21 118.56,19.68 117.72,18.6 116.64,17.88 115.44,17.64 114.12,17.88 113.04,18.6 112.32,19.68 
		111.96,21 112.32,22.32 113.04,23.4 114.12,24.12 115.44,24.36 116.64,24.12 117.72,23.4 118.56,22.32 	"/>
	<polygon class="st2" points="118.8,37.08 118.56,35.76 117.72,34.68 116.64,33.96 115.44,33.72 114.12,33.96 113.04,34.68 
		112.32,35.76 111.96,37.08 112.32,38.28 113.04,39.48 114.12,40.2 115.44,40.44 116.64,40.2 117.72,39.48 118.56,38.28 	"/>
	<rect x="20.04" y="20.04" class="st2" width="45" height="18"/>
	<polygon class="st2" points="30.72,15.96 30.48,14.64 29.76,13.56 28.68,12.84 27.36,12.6 26.04,12.84 24.96,13.56 24.24,14.64 
		24,15.96 24.24,17.16 24.96,18.36 26.04,19.08 27.36,19.32 28.68,19.08 29.76,18.36 30.48,17.16 	"/>
	<polygon class="st2" points="40.8,15.96 40.56,14.64 39.84,13.56 38.76,12.84 37.44,12.6 36.24,12.84 35.04,13.56 34.32,14.64 
		34.08,15.96 34.32,17.16 35.04,18.36 36.24,19.08 37.44,19.32 38.76,19.08 39.84,18.36 40.56,17.16 	"/>
	<polygon class="st2" points="51,15.96 50.76,14.64 50.04,13.56 48.96,12.84 47.64,12.6 46.32,12.84 45.24,13.56 44.52,14.64 
		44.28,15.96 44.52,17.16 45.24,18.36 46.32,19.08 47.64,19.32 48.96,19.08 50.04,18.36 50.76,17.16 	"/>
	<polygon class="st2" points="61.08,15.96 60.84,14.64 60.12,13.56 59.04,12.84 57.72,12.6 56.4,12.84 55.32,13.56 54.6,14.64 
		54.36,15.96 54.6,17.16 55.32,18.36 56.4,19.08 57.72,19.32 59.04,19.08 60.12,18.36 60.84,17.16 	"/>
	<polygon class="st2" points="30.72,42.24 30.48,40.92 29.76,39.84 28.68,39.12 27.36,38.76 26.04,39.12 24.96,39.84 24.24,40.92 
		24,42.24 24.24,43.44 24.96,44.52 26.04,45.36 27.36,45.6 28.68,45.36 29.76,44.52 30.48,43.44 	"/>
	<polygon class="st2" points="40.8,42.24 40.56,40.92 39.84,39.84 38.76,39.12 37.44,38.76 36.24,39.12 35.04,39.84 34.32,40.92 
		34.08,42.24 34.32,43.44 35.04,44.52 36.24,45.36 37.44,45.6 38.76,45.36 39.84,44.52 40.56,43.44 	"/>
	<polygon class="st2" points="51,42.24 50.76,40.92 50.04,39.84 48.96,39.12 47.64,38.76 46.32,39.12 45.24,39.84 44.52,40.92 
		44.28,42.24 44.52,43.44 45.24,44.52 46.32,45.36 47.64,45.6 48.96,45.36 50.04,44.52 50.76,43.44 	"/>
	<polygon class="st2" points="61.08,42.24 60.84,40.92 60.12,39.84 59.04,39.12 57.72,38.76 56.4,39.12 55.32,39.84 54.6,40.92 
		54.36,42.24 54.6,43.44 55.32,44.52 56.4,45.36 57.72,45.6 59.04,45.36 60.12,44.52 60.84,43.44 	"/>
	<polygon class="st2" points="72.6,29.04 72.24,27.72 71.52,26.64 70.44,25.92 69.12,25.68 67.92,25.92 66.84,26.64 66.12,27.72 
		65.76,29.04 66.12,30.36 66.84,31.44 67.92,32.16 69.12,32.4 70.44,32.16 71.52,31.44 72.24,30.36 	"/>
	<polygon class="st2" points="116.76,29.04 116.52,26.88 115.8,24.96 114.72,23.16 113.16,21.6 111.36,20.52 109.32,19.8 
		107.28,19.56 105.12,19.8 103.08,20.52 101.28,21.6 99.84,23.16 98.64,24.96 98.04,26.88 97.8,29.04 98.04,31.2 98.64,33.12 
		99.84,34.92 101.28,36.48 103.08,37.56 105.12,38.28 107.28,38.52 109.32,38.28 111.36,37.56 113.16,36.48 114.72,34.92 
		115.8,33.12 116.52,31.2 	"/>
	<polygon class="st2" points="102.48,21 102.24,19.68 101.52,18.6 100.44,17.88 99.12,17.64 97.8,17.88 96.72,18.6 96,19.68 
		95.76,21 96,22.32 96.72,23.4 97.8,24.12 99.12,24.36 100.44,24.12 101.52,23.4 102.24,22.32 	"/>
	<polygon class="st2" points="102.48,37.08 102.24,35.76 101.52,34.68 100.44,33.96 99.12,33.72 97.8,33.96 96.72,34.68 96,35.76 
		95.76,37.08 96,38.28 96.72,39.48 97.8,40.2 99.12,40.44 100.44,40.2 101.52,39.48 102.24,38.28 	"/>
	<polygon class="st2" points="118.8,21 118.56,19.68 117.72,18.6 116.64,17.88 115.44,17.64 114.12,17.88 113.04,18.6 112.32,19.68 
		111.96,21 112.32,22.32 113.04,23.4 114.12,24.12 115.44,24.36 116.64,24.12 117.72,23.4 118.56,22.32 	"/>
	<polygon class="st2" points="118.8,37.08 118.56,35.76 117.72,34.68 116.64,33.96 115.44,33.72 114.12,33.96 113.04,34.68 
		112.32,35.76 111.96,37.08 112.32,38.28 113.04,39.48 114.12,40.2 115.44,40.44 116.64,40.2 117.72,39.48 118.56,38.28 	"/>
	<rect x="20.04" y="20.04" class="st2" width="45" height="18"/>
	<polygon class="st2" points="30.72,15.96 30.48,14.64 29.76,13.56 28.68,12.84 27.36,12.6 26.04,12.84 24.96,13.56 24.24,14.64 
		24,15.96 24.24,17.16 24.96,18.36 26.04,19.08 27.36,19.32 28.68,19.08 29.76,18.36 30.48,17.16 	"/>
	<polygon class="st2" points="40.8,15.96 40.56,14.64 39.84,13.56 38.76,12.84 37.44,12.6 36.24,12.84 35.04,13.56 34.32,14.64 
		34.08,15.96 34.32,17.16 35.04,18.36 36.24,19.08 37.44,19.32 38.76,19.08 39.84,18.36 40.56,17.16 	"/>
	<polygon class="st2" points="51,15.96 50.76,14.64 50.04,13.56 48.96,12.84 47.64,12.6 46.32,12.84 45.24,13.56 44.52,14.64 
		44.28,15.96 44.52,17.16 45.24,18.36 46.32,19.08 47.64,19.32 48.96,19.08 50.04,18.36 50.76,17.16 	"/>
	<polygon class="st2" points="61.08,15.96 60.84,14.64 60.12,13.56 59.04,12.84 57.72,12.6 56.4,12.84 55.32,13.56 54.6,14.64 
		54.36,15.96 54.6,17.16 55.32,18.36 56.4,19.08 57.72,19.32 59.04,19.08 60.12,18.36 60.84,17.16 	"/>
	<polygon class="st2" points="30.72,42.24 30.48,40.92 29.76,39.84 28.68,39.12 27.36,38.76 26.04,39.12 24.96,39.84 24.24,40.92 
		24,42.24 24.24,43.44 24.96,44.52 26.04,45.36 27.36,45.6 28.68,45.36 29.76,44.52 30.48,43.44 	"/>
	<polygon class="st2" points="40.8,42.24 40.56,40.92 39.84,39.84 38.76,39.12 37.44,38.76 36.24,39.12 35.04,39.84 34.32,40.92 
		34.08,42.24 34.32,43.44 35.04,44.52 36.24,45.36 37.44,45.6 38.76,45.36 39.84,44.52 40.56,43.44 	"/>
	<polygon class="st2" points="51,42.24 50.76,40.92 50.04,39.84 48.96,39.12 47.64,38.76 46.32,39.12 45.24,39.84 44.52,40.92 
		44.28,42.24 44.52,43.44 45.24,44.52 46.32,45.36 47.64,45.6 48.96,45.36 50.04,44.52 50.76,43.44 	"/>
	<polygon class="st2" points="61.08,42.24 60.84,40.92 60.12,39.84 59.04,39.12 57.72,38.76 56.4,39.12 55.32,39.84 54.6,40.92 
		54.36,42.24 54.6,43.44 55.32,44.52 56.4,45.36 57.72,45.6 59.04,45.36 60.12,44.52 60.84,43.44 	"/>
	<polygon class="st2" points="19.32,29.04 19.08,27.72 18.36,26.64 17.16,25.92 15.96,25.68 14.64,25.92 13.56,26.64 12.84,27.72 
		12.48,29.04 12.84,30.36 13.56,31.44 14.64,32.16 15.96,32.4 17.16,32.16 18.36,31.44 19.08,30.36 	"/>
	<polygon class="st2" points="72.6,29.04 72.24,27.72 71.52,26.64 70.44,25.92 69.12,25.68 67.92,25.92 66.84,26.64 66.12,27.72 
		65.76,29.04 66.12,30.36 66.84,31.44 67.92,32.16 69.12,32.4 70.44,32.16 71.52,31.44 72.24,30.36 	"/>
	<polygon class="st2" points="116.76,29.04 116.52,26.88 115.8,24.96 114.72,23.16 113.16,21.6 111.36,20.52 109.32,19.8 
		107.28,19.56 105.12,19.8 103.08,20.52 101.28,21.6 99.84,23.16 98.64,24.96 98.04,26.88 97.8,29.04 98.04,31.2 98.64,33.12 
		99.84,34.92 101.28,36.48 103.08,37.56 105.12,38.28 107.28,38.52 109.32,38.28 111.36,37.56 113.16,36.48 114.72,34.92 
		115.8,33.12 116.52,31.2 	"/>
	<polygon class="st2" points="102.48,21 102.24,19.68 101.52,18.6 100.44,17.88 99.12,17.64 97.8,17.88 96.72,18.6 96,19.68 
		95.76,21 96,22.32 96.72,23.4 97.8,24.12 99.12,24.36 100.44,24.12 101.52,23.4 102.24,22.32 	"/>
	<polygon class="st2" points="102.48,37.08 102.24,35.76 101.52,34.68 100.44,33.96 99.12,33.72 97.8,33.96 96.72,34.68 96,35.76 
		95.76,37.08 96,38.28 96.72,39.48 97.8,40.2 99.12,40.44 100.44,40.2 101.52,39.48 102.24,38.28 	"/>
	<polygon class="st2" points="118.8,21 118.56,19.68 117.72,18.6 116.64,17.88 115.44,17.64 114.12,17.88 113.04,18.6 112.32,19.68 
		111.96,21 112.32,22.32 113.04,23.4 114.12,24.12 115.44,24.36 116.64,24.12 117.72,23.4 118.56,22.32 	"/>
	<polygon class="st2" points="118.8,37.08 118.56,35.76 117.72,34.68 116.64,33.96 115.44,33.72 114.12,33.96 113.04,34.68 
		112.32,35.76 111.96,37.08 112.32,38.28 113.04,39.48 114.12,40.2 115.44,40.44 116.64,40.2 117.72,39.48 118.56,38.28 	"/>
	<rect x="20.04" y="20.04" class="st2" width="45" height="18"/>
	<polygon class="st2" points="30.72,15.96 30.48,14.64 29.76,13.56 28.68,12.84 27.36,12.6 26.04,12.84 24.96,13.56 24.24,14.64 
		24,15.96 24.24,17.16 24.96,18.36 26.04,19.08 27.36,19.32 28.68,19.08 29.76,18.36 30.48,17.16 	"/>
	<polygon class="st2" points="40.8,15.96 40.56,14.64 39.84,13.56 38.76,12.84 37.44,12.6 36.24,12.84 35.04,13.56 34.32,14.64 
		34.08,15.96 34.32,17.16 35.04,18.36 36.24,19.08 37.44,19.32 38.76,19.08 39.84,18.36 40.56,17.16 	"/>
	<polygon class="st2" points="51,15.96 50.76,14.64 50.04,13.56 48.96,12.84 47.64,12.6 46.32,12.84 45.24,13.56 44.52,14.64 
		44.28,15.96 44.52,17.16 45.24,18.36 46.32,19.08 47.64,19.32 48.96,19.08 50.04,18.36 50.76,17.16 	"/>
	<polygon class="st2" points="61.08,15.96 60.84,14.64 60.12,13.56 59.04,12.84 57.72,12.6 56.4,12.84 55.32,13.56 54.6,14.64 
		54.36,15.96 54.6,17.16 55.32,18.36 56.4,19.08 57.72,19.32 59.04,19.08 60.12,18.36 60.84,17.16 	"/>
	<polygon class="st2" points="30.72,42.24 30.48,40.92 29.76,39.84 28.68,39.12 27.36,38.76 26.04,39.12 24.96,39.84 24.24,40.92 
		24,42.24 24.24,43.44 24.96,44.52 26.04,45.36 27.36,45.6 28.68,45.36 29.76,44.52 30.48,43.44 	"/>
	<polygon class="st2" points="40.8,42.24 40.56,40.92 39.84,39.84 38.76,39.12 37.44,38.76 36.24,39.12 35.04,39.84 34.32,40.92 
		34.08,42.24 34.32,43.44 35.04,44.52 36.24,45.36 37.44,45.6 38.76,45.36 39.84,44.52 40.56,43.44 	"/>
	<polygon class="st2" points="51,42.24 50.76,40.92 50.04,39.84 48.96,39.12 47.64,38.76 46.32,39.12 45.24,39.84 44.52,40.92 
		44.28,42.24 44.52,43.44 45.24,44.52 46.32,45.36 47.64,45.6 48.96,45.36 50.04,44.52 50.76,43.44 	"/>
	<polygon class="st2" points="61.08,42.24 60.84,40.92 60.12,39.84 59.04,39.12 57.72,38.76 56.4,39.12 55.32,39.84 54.6,40.92 
		54.36,42.24 54.6,43.44 55.32,44.52 56.4,45.36 57.72,45.6 59.04,45.36 60.12,44.52 60.84,43.44 	"/>
	<polygon class="st2" points="72.6,29.04 72.24,27.72 71.52,26.64 70.44,25.92 69.12,25.68 67.92,25.92 66.84,26.64 66.12,27.72 
		65.76,29.04 66.12,30.36 66.84,31.44 67.92,32.16 69.12,32.4 70.44,32.16 71.52,31.44 72.24,30.36 	"/>
	<polygon class="st2" points="116.76,29.04 116.52,26.88 115.8,24.96 114.72,23.16 113.16,21.6 111.36,20.52 109.32,19.8 
		107.28,19.56 105.12,19.8 103.08,20.52 101.28,21.6 99.84,23.16 98.64,24.96 98.04,26.88 97.8,29.04 98.04,31.2 98.64,33.12 
		99.84,34.92 101.28,36.48 103.08,37.56 105.12,38.28 107.28,38.52 109.32,38.28 111.36,37.56 113.16,36.48 114.72,34.92 
		115.8,33.12 116.52,31.2 	"/>
	<polygon class="st2" points="102.48,21 102.24,19.68 101.52,18.6 100.44,17.88 99.12,17.64 97.8,17.88 96.72,18.6 96,19.68 
		95.76,21 96,22.32 96.72,23.4 97.8,24.12 99.12,24.36 100.44,24.12 101.52,23.4 102.24,22.32 	"/>
	<polygon class="st2" points="102.48,37.08 102.24,35.76 101.52,34.68 100.44,33.96 99.12,33.72 97.8,33.96 96.72,34.68 96,35.76 
		95.76,37.08 96,38.28 96.72,39.48 97.8,40.2 99.12,40.44 100.44,40.2 101.52,39.48 102.24,38.28 	"/>
	<polygon class="st2" points="118.8,21 118.56,19.68 117.72,18.6 116.64,17.88 115.44,17.64 114.12,17.88 113.04,18.6 112.32,19.68 
		111.96,21 112.32,22.32 113.04,23.4 114.12,24.12 115.44,24.36 116.64,24.12 117.72,23.4 118.56,22.32 	"/>
	<polygon class="st2" points="118.8,37.08 118.56,35.76 117.72,34.68 116.64,33.96 115.44,33.72 114.12,33.96 113.04,34.68 
		112.32,35.76 111.96,37.08 112.32,38.28 113.04,39.48 114.12,40.2 115.44,40.44 116.64,40.2 117.72,39.48 118.56,38.28 	"/>
</g>
</svg>
