<?xml version="1.0" encoding="utf-8"?>
<!-- Generator: Adobe Illustrator 23.0.2, SVG Export Plug-In . SVG Version: 6.00 Build 0)  -->
<svg version="1.1" id="Layer_1" xmlns="http://www.w3.org/2000/svg" xmlns:xlink="http://www.w3.org/1999/xlink" x="0px" y="0px"
	 viewBox="0 0 25.52 50.42" style="enable-background:new 0 0 25.52 50.42;" xml:space="preserve">
<style type="text/css">
	.st0{fill:#50869F;}
	.st1{fill:#231F20;}
</style>
<polyline class="st0" points="18.55,25.09 18.31,26.41 17.59,27.49 16.51,28.21 15.19,28.45 13.87,28.21 12.79,27.49 12.07,26.41 
	11.83,25.09 12.07,23.77 12.79,22.69 13.87,21.97 15.19,21.73 16.51,21.97 17.59,22.69 18.31,23.77 18.55,25.09 "/>
<path class="st0" d="M25.02,16.21v2.5c0,0.14,0.11,0.25,0.25,0.25c0.14,0,0.25-0.11,0.25-0.25v-2.5c0-0.14-0.11-0.25-0.25-0.25
	C25.13,15.96,25.02,16.07,25.02,16.21"/>
<path class="st0" d="M25.02,23.06v4.35c0,0.14,0.11,0.25,0.25,0.25c0.14,0,0.25-0.11,0.25-0.25v-4.35c0-0.14-0.11-0.25-0.25-0.25
	C25.13,22.81,25.02,22.92,25.02,23.06"/>
<path class="st0" d="M25.02,31.77v2.5c0,0.14,0.11,0.25,0.25,0.25c0.14,0,0.25-0.11,0.25-0.25v-2.5c0-0.14-0.11-0.25-0.25-0.25
	C25.13,31.52,25.02,31.63,25.02,31.77"/>
<path class="st0" d="M9.13,16.52h2.5c0.14,0,0.25-0.11,0.25-0.25c0-0.14-0.11-0.25-0.25-0.25h-2.5c-0.14,0-0.25,0.11-0.25,0.25
	C8.88,16.4,8.99,16.52,9.13,16.52"/>
<path class="st0" d="M15.34,16.52h3.71c0.14,0,0.25-0.11,0.25-0.25c0-0.14-0.11-0.25-0.25-0.25h-3.71c-0.14,0-0.25,0.11-0.25,0.25
	C15.09,16.4,15.2,16.52,15.34,16.52"/>
<path class="st0" d="M22.77,16.52h2.5c0.14,0,0.25-0.11,0.25-0.25c0-0.14-0.11-0.25-0.25-0.25h-2.5c-0.14,0-0.25,0.11-0.25,0.25
	C22.52,16.4,22.63,16.52,22.77,16.52"/>
<rect x="0.25" y="16.27" class="st0" width="9" height="18"/>
<polyline class="st1" points="0.25,16.27 0,16.27 0,34.52 9.5,34.52 9.5,16.02 0,16.02 0,16.27 0.25,16.27 0.25,16.52 9,16.52 
	9,34.02 0.5,34.02 0.5,16.27 0.25,16.27 0.25,16.52 0.25,16.27 "/>
<path class="st0" d="M9.13,34.52h2.5c0.14,0,0.25-0.11,0.25-0.25c0-0.14-0.11-0.25-0.25-0.25h-2.5c-0.14,0-0.25,0.11-0.25,0.25
	C8.88,34.4,8.99,34.52,9.13,34.52"/>
<path class="st0" d="M15.34,34.52h3.71c0.14,0,0.25-0.11,0.25-0.25c0-0.14-0.11-0.25-0.25-0.25h-3.71c-0.14,0-0.25,0.11-0.25,0.25
	C15.09,34.4,15.2,34.52,15.34,34.52"/>
<path class="st0" d="M22.77,34.52h2.5c0.14,0,0.25-0.11,0.25-0.25c0-0.14-0.11-0.25-0.25-0.25h-2.5c-0.14,0-0.25,0.11-0.25,0.25
	C22.52,34.4,22.63,34.52,22.77,34.52"/>
</svg>
